<svg xmlns="http://www.w3.org/2000/svg" viewBox="0 0 1600 900" width="1600" height="900" role="img" aria-label="Terraced street">
  <rect width="1600" height="900" fill="#EFEBE5"/>
  <rect x="0" y="640" width="1600" height="260" fill="#DCD6CB"/>
  <g transform="translate(140 0)"><path d="M0 640 V330 L130 240 L260 330 V640 Z" fill="#8C8577" opacity="0.55"/><rect x="95" y="470" width="70" height="170" fill="#EFEBE5" opacity="0.7"/><rect x="40" y="370" width="60" height="55" fill="#EFEBE5" opacity="0.5"/><rect x="165" y="370" width="60" height="55" fill="#EFEBE5" opacity="0.5"/></g>
  <g transform="translate(420 0)"><path d="M0 640 V330 L130 240 L260 330 V640 Z" fill="#8C8577" opacity="0.6200000000000001"/><rect x="95" y="470" width="70" height="170" fill="#EFEBE5" opacity="0.7"/><rect x="40" y="370" width="60" height="55" fill="#EFEBE5" opacity="0.5"/><rect x="165" y="370" width="60" height="55" fill="#EFEBE5" opacity="0.5"/></g>
  <g transform="translate(700 0)"><path d="M0 640 V330 L130 240 L260 330 V640 Z" fill="#8C8577" opacity="0.6900000000000001"/><rect x="95" y="470" width="70" height="170" fill="#EFEBE5" opacity="0.7"/><rect x="40" y="370" width="60" height="55" fill="#EFEBE5" opacity="0.5"/><rect x="165" y="370" width="60" height="55" fill="#EFEBE5" opacity="0.5"/></g>
  <g transform="translate(980 0)"><path d="M0 640 V330 L130 240 L260 330 V640 Z" fill="#8C8577" opacity="0.76"/><rect x="95" y="470" width="70" height="170" fill="#EFEBE5" opacity="0.7"/><rect x="40" y="370" width="60" height="55" fill="#EFEBE5" opacity="0.5"/><rect x="165" y="370" width="60" height="55" fill="#EFEBE5" opacity="0.5"/></g>
  <g transform="translate(1260 0)"><path d="M0 640 V330 L130 240 L260 330 V640 Z" fill="#8C8577" opacity="0.8300000000000001"/><rect x="95" y="470" width="70" height="170" fill="#EFEBE5" opacity="0.7"/><rect x="40" y="370" width="60" height="55" fill="#EFEBE5" opacity="0.5"/><rect x="165" y="370" width="60" height="55" fill="#EFEBE5" opacity="0.5"/></g>
</svg>
